<svg xmlns="http://www.w3.org/2000/svg" width="1320" height="500">
<rect width="100%" height="100%" fill="#f8f9fb"/>
<text x="40" y="24" font-size="18" font-weight="bold">BER comparison across IEEE-like matrix profiles</text>
<rect x="40" y="60" width="390" height="320" fill="white" stroke="#bbb"/>
<text x="235.0" y="50" text-anchor="middle" font-size="14">ieee_80211n_r12</text>
<polyline points="75.0,350.0 141.0,350.0 207.0,350.0 273.0,350.0 339.0,350.0 405.0,350.0" fill="none" stroke="#1f77b4" stroke-width="2"/>
<polyline points="75.0,350.0 141.0,350.0 207.0,350.0 273.0,350.0 339.0,350.0 405.0,350.0" fill="none" stroke="#ff7f0e" stroke-width="2"/>
<polyline points="75.0,350.0 141.0,350.0 207.0,350.0 273.0,350.0 339.0,350.0 405.0,350.0" fill="none" stroke="#2ca02c" stroke-width="2"/>
<polyline points="75.0,350.0 141.0,350.0 207.0,350.0 273.0,350.0 339.0,350.0 405.0,350.0" fill="none" stroke="#d62728" stroke-width="2"/>
<rect x="465" y="60" width="390" height="320" fill="white" stroke="#bbb"/>
<text x="660.0" y="50" text-anchor="middle" font-size="14">ieee_80211n_r23</text>
<polyline points="500.0,350.0 566.0,350.0 632.0,350.0 698.0,350.0 764.0,350.0 830.0,350.0" fill="none" stroke="#1f77b4" stroke-width="2"/>
<polyline points="500.0,350.0 566.0,350.0 632.0,350.0 698.0,350.0 764.0,350.0 830.0,350.0" fill="none" stroke="#ff7f0e" stroke-width="2"/>
<polyline points="500.0,350.0 566.0,350.0 632.0,350.0 698.0,350.0 764.0,350.0 830.0,350.0" fill="none" stroke="#2ca02c" stroke-width="2"/>
<polyline points="500.0,350.0 566.0,350.0 632.0,350.0 698.0,350.0 764.0,350.0 830.0,350.0" fill="none" stroke="#d62728" stroke-width="2"/>
<rect x="890" y="60" width="390" height="320" fill="white" stroke="#bbb"/>
<text x="1085.0" y="50" text-anchor="middle" font-size="14">ieee_80211n_r34</text>
<polyline points="925.0,350.0 991.0,350.0 1057.0,350.0 1123.0,350.0 1189.0,350.0 1255.0,350.0" fill="none" stroke="#1f77b4" stroke-width="2"/>
<polyline points="925.0,350.0 991.0,350.0 1057.0,350.0 1123.0,350.0 1189.0,350.0 1255.0,350.0" fill="none" stroke="#ff7f0e" stroke-width="2"/>
<polyline points="925.0,350.0 991.0,350.0 1057.0,350.0 1123.0,350.0 1189.0,350.0 1255.0,350.0" fill="none" stroke="#2ca02c" stroke-width="2"/>
<polyline points="925.0,350.0 991.0,350.0 1057.0,350.0 1123.0,350.0 1189.0,350.0 1255.0,350.0" fill="none" stroke="#d62728" stroke-width="2"/>
<line x1="50" y1="430" x2="75" y2="430" stroke="#1f77b4" stroke-width="3"/>
<text x="82" y="434" font-size="12">CONVENTIONAL</text>
<line x1="250" y1="430" x2="275" y2="430" stroke="#ff7f0e" stroke-width="3"/>
<text x="282" y="434" font-size="12">RMAS1</text>
<line x1="450" y1="430" x2="475" y2="430" stroke="#2ca02c" stroke-width="3"/>
<text x="482" y="434" font-size="12">RMAS2</text>
<line x1="650" y1="430" x2="675" y2="430" stroke="#d62728" stroke-width="3"/>
<text x="682" y="434" font-size="12">AS</text>
</svg>