<svg xmlns="http://www.w3.org/2000/svg" width="1260" height="640">
<rect width="100%" height="100%" fill="#f8f9fb"/>
<rect x="50" y="50" width="353" height="260" fill="white" stroke="#bbb"/>
<text x="226.5" y="38" text-anchor="middle" font-size="14">BER vs SNR</text>
<polyline fill="none" stroke="#1f77b4" stroke-width="2" points="80.0,74.5 142.6,111.4 205.2,290.0 267.8,290.0 330.4,290.0 393.0,290.0"/>
<text x="399.0" y="290.0" font-size="10" fill="#1f77b4">CONVENTIONAL</text>
<polyline fill="none" stroke="#ff7f0e" stroke-width="2" points="80.0,79.8 142.6,137.7 205.2,290.0 267.8,290.0 330.4,290.0 393.0,290.0"/>
<text x="399.0" y="290.0" font-size="10" fill="#ff7f0e">RMAS1</text>
<polyline fill="none" stroke="#2ca02c" stroke-width="2" points="80.0,83.9 142.6,115.4 205.2,290.0 267.8,290.0 330.4,290.0 393.0,290.0"/>
<text x="399.0" y="290.0" font-size="10" fill="#2ca02c">RMAS2</text>
<polyline fill="none" stroke="#d62728" stroke-width="2" points="80.0,70.0 142.6,101.5 205.2,290.0 267.8,290.0 330.4,290.0 393.0,290.0"/>
<text x="399.0" y="290.0" font-size="10" fill="#d62728">AS</text>
<rect x="453" y="50" width="353" height="260" fill="white" stroke="#bbb"/>
<text x="629.5" y="38" text-anchor="middle" font-size="14">FER vs SNR</text>
<polyline fill="none" stroke="#1f77b4" stroke-width="2" points="483.0,70.0 545.6,95.8 608.2,290.0 670.8,290.0 733.4,290.0 796.0,290.0"/>
<text x="802.0" y="290.0" font-size="10" fill="#1f77b4">CONVENTIONAL</text>
<polyline fill="none" stroke="#ff7f0e" stroke-width="2" points="483.0,77.6 545.6,114.9 608.2,290.0 670.8,290.0 733.4,290.0 796.0,290.0"/>
<text x="802.0" y="290.0" font-size="10" fill="#ff7f0e">RMAS1</text>
<polyline fill="none" stroke="#2ca02c" stroke-width="2" points="483.0,78.5 545.6,105.3 608.2,290.0 670.8,290.0 733.4,290.0 796.0,290.0"/>
<text x="802.0" y="290.0" font-size="10" fill="#2ca02c">RMAS2</text>
<polyline fill="none" stroke="#d62728" stroke-width="2" points="483.0,70.0 545.6,92.7 608.2,290.0 670.8,290.0 733.4,290.0 796.0,290.0"/>
<text x="802.0" y="290.0" font-size="10" fill="#d62728">AS</text>
<rect x="856" y="50" width="353" height="260" fill="white" stroke="#bbb"/>
<text x="1032.5" y="38" text-anchor="middle" font-size="14">Average Iterations vs SNR</text>
<polyline fill="none" stroke="#1f77b4" stroke-width="2" points="886.0,70.0 948.6,208.2 1011.2,265.5 1073.8,280.3 1136.4,287.2 1199.0,289.8"/>
<text x="1205.0" y="289.8" font-size="10" fill="#1f77b4">CONVENTIONAL</text>
<polyline fill="none" stroke="#ff7f0e" stroke-width="2" points="886.0,171.2 948.6,254.7 1011.2,286.7 1073.8,289.3 1136.4,290.0 1199.0,289.8"/>
<text x="1205.0" y="289.8" font-size="10" fill="#ff7f0e">RMAS1</text>
<polyline fill="none" stroke="#2ca02c" stroke-width="2" points="886.0,189.6 948.6,269.0 1011.2,289.3 1073.8,290.0 1136.4,290.0 1199.0,290.0"/>
<text x="1205.0" y="290.0" font-size="10" fill="#2ca02c">RMAS2</text>
<polyline fill="none" stroke="#d62728" stroke-width="2" points="886.0,74.1 948.6,211.3 1011.2,266.6 1073.8,279.8 1136.4,287.4 1199.0,289.8"/>
<text x="1205.0" y="289.8" font-size="10" fill="#d62728">AS</text>
<text x="50" y="380" font-size="18" font-weight="bold">Performance Summary @ 7.0 dB</text>
<text x="50" y="408" font-size="13" font-family="monospace">Algorithm    BER         FER         AvgIter</text>
<text x="50" y="435" font-size="13" fill="#1f77b4" font-family="monospace">CONVENTIONAL  0.000e+00  0.000e+00    1.003</text>
<text x="50" y="459" font-size="13" fill="#ff7f0e" font-family="monospace">RMAS1       0.000e+00  0.000e+00    1.003</text>
<text x="50" y="483" font-size="13" fill="#2ca02c" font-family="monospace">RMAS2       0.000e+00  0.000e+00    1.000</text>
<text x="50" y="507" font-size="13" fill="#d62728" font-family="monospace">AS          0.000e+00  0.000e+00    1.003</text>
</svg>